<svg id="Layer_1" data-name="Layer 1" xmlns="http://www.w3.org/2000/svg" viewBox="0 0 1600 800"><defs><style>.cls-1{font-size:12px;font-family:TitlingGothicFBCond-Standard, TitlingGothicFB Cond;}</style></defs><title>Artboard 1</title><text class="cls-1" transform="matrix(0.68, -0.73, 0.73, 0.68, 19.52, 800.47)">I</text><text class="cls-1" transform="matrix(0.69, -0.72, 0.72, 0.69, 21.77, 798.07)"> </text><text class="cls-1" transform="matrix(0.7, -0.71, 0.71, 0.7, 23.8, 795.94)">s</text><text class="cls-1" transform="translate(27.79 791.86) rotate(-44.85)">p</text><text class="cls-1" transform="matrix(0.72, -0.7, 0.7, 0.72, 32.3, 787.39)">e</text><text class="cls-1" transform="translate(36.57 783.24) rotate(-43.6)">n</text><text class="cls-1" transform="translate(40.98 779.05) rotate(-43.13)">t</text><text class="cls-1" transform="translate(43.95 776.27) rotate(-42.82)"> </text><text class="cls-1" transform="translate(46.13 774.25) rotate(-42.51)">t</text><text class="cls-1" transform="translate(49.14 771.49) rotate(-42.09)">h</text><text class="cls-1" transform="matrix(0.75, -0.66, 0.66, 0.75, 53.65, 767.42)">e</text><text class="cls-1" transform="matrix(0.75, -0.66, 0.66, 0.75, 58.1, 763.48)"> </text><text class="cls-1" transform="translate(60.31 761.53) rotate(-40.76)">w</text><text class="cls-1" transform="matrix(0.76, -0.65, 0.65, 0.76, 67.07, 755.72)">h</text><text class="cls-1" transform="matrix(0.77, -0.64, 0.64, 0.77, 71.7, 751.81)">o</text><text class="cls-1" transform="translate(76.49 747.84) rotate(-39.34)">l</text><text class="cls-1" transform="matrix(0.78, -0.63, 0.63, 0.78, 78.74, 745.99)">e</text><text class="cls-1" transform="matrix(0.78, -0.62, 0.62, 0.78, 83.39, 742.24)"> </text><text class="cls-1" transform="matrix(0.78, -0.62, 0.62, 0.78, 85.68, 740.4)">d</text><text class="cls-1" transform="translate(90.58 736.53) rotate(-37.85)">a</text><text class="cls-1" transform="matrix(0.79, -0.61, 0.61, 0.79, 95.21, 732.94)">y</text><text class="cls-1" transform="translate(99.99 729.29) rotate(-37.06)"> </text><text class="cls-1" transform="matrix(0.8, -0.6, 0.6, 0.8, 102.35, 727.51)">i</text><text class="cls-1" transform="matrix(0.8, -0.59, 0.59, 0.8, 104.72, 725.74)">n</text><text class="cls-1" transform="matrix(0.81, -0.59, 0.59, 0.81, 109.59, 722.13)"> </text><text class="cls-1" transform="translate(111.98 720.38) rotate(-35.68)">m</text><text class="cls-1" transform="matrix(0.82, -0.58, 0.58, 0.82, 119.04, 715.32)">y</text><text class="cls-1" transform="translate(123.95 711.88) rotate(-34.77)"> </text><text class="cls-1" transform="translate(126.38 710.18) rotate(-34.42)">h</text><text class="cls-1" transform="translate(131.37 706.77) rotate(-33.95)">e</text><text class="cls-1" transform="matrix(0.83, -0.55, 0.55, 0.83, 136.32, 703.44)">a</text><text class="cls-1" transform="matrix(0.84, -0.54, 0.54, 0.84, 141.36, 700.11)">d</text><text class="cls-1" transform="translate(146.58 696.73) rotate(-32.6)">/</text><text class="cls-1" transform="translate(149.41 694.92) rotate(-32.34)"> </text><text class="cls-1" transform="matrix(0.85, -0.53, 0.53, 0.85, 151.89, 693.34)">D</text><text class="cls-1" transform="translate(157.89 689.61) rotate(-31.39)">o</text><text class="cls-1" transform="translate(163.21 686.38) rotate(-31.01)"> </text><text class="cls-1" transform="translate(165.73 684.85) rotate(-30.63)">a</text><text class="cls-1" transform="matrix(0.86, -0.5, 0.5, 0.86, 170.91, 681.79)"> </text><text class="cls-1" transform="translate(173.46 680.31) rotate(-30)">l</text><text class="cls-1" transform="translate(176 678.85) rotate(-29.75)">i</text><text class="cls-1" transform="translate(178.58 677.37) rotate(-29.45)">t</text><text class="cls-1" transform="translate(182.1 675.39) rotate(-29.1)">t</text><text class="cls-1" transform="matrix(0.88, -0.48, 0.48, 0.88, 185.69, 673.39)">l</text><text class="cls-1" transform="matrix(0.88, -0.48, 0.48, 0.88, 188.23, 671.99)">e</text><text class="cls-1" transform="translate(193.49 669.16) rotate(-28.01)"> </text><text class="cls-1" transform="translate(196.09 667.77) rotate(-27.62)">s</text><text class="cls-1" transform="matrix(0.89, -0.46, 0.46, 0.89, 201.17, 665.12)">p</text><text class="cls-1" transform="matrix(0.89, -0.45, 0.45, 0.89, 206.82, 662.23)">r</text><text class="cls-1" transform="translate(210.89 660.2) rotate(-26.23)">i</text><text class="cls-1" transform="matrix(0.9, -0.44, 0.44, 0.9, 213.54, 658.89)">n</text><text class="cls-1" transform="translate(219.01 656.25) rotate(-25.25)">g</text><text class="cls-1" transform="translate(224.47 653.68) rotate(-24.82)"> </text><text class="cls-1" transform="translate(227.16 652.43) rotate(-24.4)">c</text><text class="cls-1" transform="translate(232.58 649.98) rotate(-23.97)">l</text><text class="cls-1" transform="matrix(0.92, -0.4, 0.4, 0.92, 235.26, 648.79)">e</text><text class="cls-1" transform="translate(240.72 646.41) rotate(-22.94)">a</text><text class="cls-1" transform="translate(246.25 644.07) rotate(-22.34)">n</text><text class="cls-1" transform="matrix(0.93, -0.37, 0.37, 0.93, 251.86, 641.78)">i</text><text class="cls-1" transform="translate(254.64 640.66) rotate(-21.43)">n</text><text class="cls-1" transform="matrix(0.93, -0.36, 0.36, 0.93, 260.28, 638.45)">g</text><text class="cls-1" transform="translate(265.91 636.32) rotate(-20.31)">,</text><text class="cls-1" transform="translate(269.19 635.11) rotate(-19.97)"> </text><text class="cls-1" transform="translate(271.95 634.1) rotate(-19.64)">I</text><text class="cls-1" transform="translate(275.07 632.99) rotate(-19.29)">&apos;</text><text class="cls-1" transform="translate(278.07 631.93) rotate(-18.65)">m</text><text class="cls-1" transform="translate(286.48 629.11) rotate(-18.01)"> </text><text class="cls-1" transform="translate(289.29 628.19) rotate(-17.51)">a</text><text class="cls-1" transform="translate(295.03 626.39) rotate(-17.02)">l</text><text class="cls-1" transform="translate(297.82 625.52) rotate(-16.35)">w</text><text class="cls-1" transform="matrix(0.96, -0.27, 0.27, 0.96, 306.17, 623.09)">a</text><text class="cls-1" transform="translate(311.81 621.52) rotate(-14.86)">y</text><text class="cls-1" transform="translate(317.42 620.04) rotate(-14.2)">s</text><text class="cls-1" transform="translate(322.96 618.65) rotate(-13.69)"> </text><text class="cls-1" transform="translate(325.83 617.95) rotate(-13.27)">t</text><text class="cls-1" transform="translate(329.79 617.01) rotate(-12.66)">o</text><text class="cls-1" transform="translate(335.84 615.65) rotate(-11.92)">o</text><text class="cls-1" transform="matrix(0.98, -0.2, 0.2, 0.98, 341.89, 614.39)"> </text><text class="cls-1" transform="translate(344.78 613.8) rotate(-10.79)">b</text><text class="cls-1" transform="matrix(0.98, -0.17, 0.17, 0.98, 351.05, 612.61)">u</text><text class="cls-1" transform="matrix(0.99, -0.16, 0.16, 0.99, 357.01, 611.56)">s</text><text class="cls-1" transform="translate(362.44 610.68) rotate(-8.57)">y</text><text class="cls-1" transform="translate(368.34 609.8) rotate(-8.01)"> </text><text class="cls-1" transform="matrix(0.99, -0.13, 0.13, 0.99, 371.25, 609.38)">d</text><text class="cls-1" transform="matrix(0.99, -0.12, 0.12, 0.99, 377.45, 608.58)">r</text><text class="cls-1" transform="matrix(0.99, -0.11, 0.11, 0.99, 381.86, 608.06)">e</text><text class="cls-1" transform="translate(387.77 607.44) rotate(-5.27)">a</text><text class="cls-1" transform="translate(393.74 606.88) rotate(-4.29)">m</text><text class="cls-1" transform="matrix(1, -0.06, 0.06, 1, 402.58, 606.24)">i</text><text class="cls-1" transform="translate(405.55 606.05) rotate(-2.9)">n</text><text class="cls-1" transform="matrix(1, -0.04, 0.04, 1, 411.58, 605.75)">g</text><text class="cls-1" transform="translate(418.08 605.53) rotate(-1.39)">/</text><text class="cls-1" transform="translate(421.72 605.42) rotate(-0.45)">W</text><text class="cls-1" transform="translate(431.13 605.36) rotate(0.57)">e</text><text class="cls-1" transform="matrix(1, 0.02, -0.02, 1, 437.06, 605.43)">l</text><text class="cls-1" transform="translate(440.01 605.5) rotate(1.58)">l</text><text class="cls-1" transform="translate(442.91 605.58) rotate(2.02)">,</text><text class="cls-1" transform="translate(446.4 605.71) rotate(2.47)"> </text><text class="cls-1" transform="translate(449.34 605.81) rotate(3.29)">m</text><text class="cls-1" transform="translate(458.18 606.34) rotate(4.32)">a</text><text class="cls-1" transform="translate(463.99 606.78) rotate(5.13)">y</text><text class="cls-1" transform="translate(469.95 607.32) rotate(5.98)">b<tspan x="6.4" y="0.05">e</tspan></text><text class="cls-1" transform="translate(482.22 608.71) rotate(7.3)"> <tspan x="2.96" y="0">I</tspan></text><text class="cls-1" transform="translate(488.45 609.5) rotate(7.34)"> </text><text class="cls-1" transform="translate(491.38 609.88) rotate(7.47)">s</text><text class="cls-1" transform="translate(497.06 610.62) rotate(7.64)">h</text><text class="cls-1" transform="translate(503.08 611.43) rotate(7.83)">o</text><text class="cls-1" transform="translate(509.24 612.28) rotate(8.01)">u</text><text class="cls-1" transform="matrix(0.99, 0.14, -0.14, 0.99, 515.25, 613.13)">l</text><text class="cls-1" transform="matrix(0.99, 0.14, -0.14, 0.99, 518.14, 613.54)">d</text><text class="cls-1" transform="translate(524.35 614.45) rotate(8.43)"> </text><text class="cls-1" transform="translate(527.28 614.88) rotate(8.62)">w</text><text class="cls-1" transform="matrix(0.99, 0.15, -0.15, 0.99, 535.9, 616.19)">a</text><text class="cls-1" transform="translate(541.84 617.12) rotate(9.03)">k</text><text class="cls-1" transform="translate(547.46 618.01) rotate(9.21)">e</text><text class="cls-1" transform="translate(553.35 618.97) rotate(9.35)"> </text><text class="cls-1" transform="matrix(0.99, 0.16, -0.16, 0.99, 556.26, 619.44)">u</text><text class="cls-1" transform="translate(562.25 620.44) rotate(9.68)">p</text><text class="cls-1" transform="matrix(0.99, 0.17, -0.17, 0.99, 568.52, 621.52)"> </text><text class="cls-1" transform="translate(571.45 622.02) rotate(9.91)">i</text><text class="cls-1" transform="translate(574.4 622.54) rotate(10.05)">n</text><text class="cls-1" transform="matrix(0.98, 0.18, -0.18, 0.98, 580.36, 623.6)">s</text><text class="cls-1" transform="translate(585.97 624.61) rotate(10.38)">t</text><text class="cls-1" transform="translate(589.99 625.35) rotate(10.52)">e</text><text class="cls-1" transform="translate(595.86 626.44) rotate(10.7)">a</text><text class="cls-1" transform="translate(601.8 627.56) rotate(10.87)">d</text><text class="cls-1" transform="translate(607.94 628.74) rotate(11)">/</text><text class="cls-1" transform="matrix(0.98, 0.19, -0.19, 0.98, 610.94, 629.32)">A</text><text class="cls-1" transform="translate(617.79 630.67) rotate(11.25)"> </text><text class="cls-1" transform="translate(620.71 631.25) rotate(11.32)">l</text><text class="cls-1" transform="matrix(0.98, 0.2, -0.2, 0.98, 623.58, 631.83)">o</text><text class="cls-1" transform="translate(629.68 633.06) rotate(11.54)">t</text><text class="cls-1" transform="translate(633.68 633.88) rotate(11.61)"> </text><text class="cls-1" transform="matrix(0.98, 0.2, -0.2, 0.98, 636.6, 634.48)">o</text><text class="cls-1" transform="translate(642.68 635.74) rotate(11.79)">f</text><text class="cls-1" transform="matrix(0.98, 0.21, -0.21, 0.98, 646.69, 636.58)"> </text><text class="cls-1" transform="translate(649.6 637.19) rotate(11.9)">t</text><text class="cls-1" transform="translate(653.63 638.04) rotate(11.97)">h</text><text class="cls-1" transform="translate(659.59 639.3) rotate(12.01)">i</text><text class="cls-1" transform="matrix(0.98, 0.21, -0.21, 0.98, 662.5, 639.92)">n</text><text class="cls-1" transform="matrix(0.98, 0.21, -0.21, 0.98, 668.44, 641.19)">g</text><text class="cls-1" transform="matrix(0.98, 0.21, -0.21, 0.98, 674.35, 642.45)">s</text><text class="cls-1" transform="matrix(0.98, 0.21, -0.21, 0.98, 679.96, 643.65)"> </text><text class="cls-1" transform="translate(682.85 644.27) rotate(12.06)">I</text><text class="cls-1" transform="translate(686.09 644.96) rotate(12.04)"> </text><text class="cls-1" transform="matrix(0.98, 0.21, -0.21, 0.98, 688.99, 645.58)">r</text><text class="cls-1" transform="matrix(0.98, 0.21, -0.21, 0.98, 693.34, 646.51)">e</text><text class="cls-1" transform="translate(699.16 647.74) rotate(11.82)">g</text><text class="cls-1" transform="translate(705.08 648.97) rotate(11.7)">r</text><text class="cls-1" transform="translate(709.42 649.87) rotate(11.55)">e</text><text class="cls-1" transform="matrix(0.98, 0.2, -0.2, 0.98, 715.28, 651.07)">t</text><text class="cls-1" transform="translate(719.3 651.88) rotate(11.24)">,</text><text class="cls-1" transform="translate(722.74 652.56) rotate(11.11)"> </text><text class="cls-1" transform="matrix(0.98, 0.19, -0.19, 0.98, 725.64, 653.13)">b</text><text class="cls-1" transform="translate(731.93 654.34) rotate(10.57)">u</text><text class="cls-1" transform="translate(737.89 655.45) rotate(10.28)">t</text><text class="cls-1" transform="translate(741.92 656.18) rotate(10.06)"> </text><text class="cls-1" transform="translate(744.84 656.7) rotate(9.85)">I</text><text class="cls-1" transform="translate(748.07 657.26) rotate(9.64)"> </text><text class="cls-1" transform="translate(751 657.75) rotate(9.42)">j</text><text class="cls-1" transform="translate(753.97 658.25) rotate(9.07)">u</text><text class="cls-1" transform="matrix(0.99, 0.15, -0.15, 0.99, 759.97, 659.2)">s</text><text class="cls-1" transform="matrix(0.99, 0.14, -0.14, 0.99, 765.59, 660.04)">t</text><text class="cls-1" transform="matrix(0.99, 0.14, -0.14, 0.99, 769.65, 660.62)"> </text><text class="cls-1" transform="translate(772.58 661.03) rotate(7.42)">s</text><text class="cls-1" transform="translate(778.24 661.77) rotate(6.84)">a</text><text class="cls-1" transform="matrix(0.99, 0.11, -0.11, 0.99, 784.05, 662.46)">y</text><text class="cls-1" transform="matrix(0.99, 0.1, -0.1, 0.99, 790, 663.1)"> </text><text class="cls-1" transform="matrix(1, 0.09, -0.09, 1, 792.95, 663.4)">I</text><text class="cls-1" transform="translate(796.23 663.7) rotate(5.05)"> </text><text class="cls-1" transform="translate(799.18 663.96) rotate(4.65)">f</text><text class="cls-1" transform="matrix(1, 0.07, -0.07, 1, 803.1, 664.29)">o</text><text class="cls-1" transform="translate(809.28 664.72) rotate(3.45)">r</text><text class="cls-1" transform="translate(813.68 664.99) rotate(2.84)">g</text><text class="cls-1" transform="translate(819.66 665.28) rotate(2.13)">e</text><text class="cls-1" transform="translate(825.61 665.49) rotate(1.53)">t</text><text class="cls-1" transform="translate(829.7 665.6) rotate(1.09)">/</text><text class="cls-1" transform="translate(833.34 665.69) rotate(0.27)">W</text><text class="cls-1" transform="translate(843.19 665.71) rotate(-0.66)">h</text><text class="cls-1" transform="matrix(1, -0.02, 0.02, 1, 849.1, 665.64)">y</text><text class="cls-1" transform="translate(855.09 665.49) rotate(-1.85)"> </text><text class="cls-1" transform="translate(858.05 665.4) rotate(-2.34)">c</text><text class="cls-1" transform="matrix(1, -0.05, 0.05, 1, 863.98, 665.15)">a</text><text class="cls-1" transform="matrix(1, -0.06, 0.06, 1, 870.01, 664.84)">n</text><text class="cls-1" transform="translate(876.06 664.44) rotate(-4.12)">&apos;</text><text class="cls-1" transform="matrix(1, -0.08, 0.08, 1, 879.34, 664.2)">t</text><text class="cls-1" transform="matrix(1, -0.08, 0.08, 1, 883.43, 663.88)"> </text><text class="cls-1" transform="translate(886.36 663.63) rotate(-5.14)">i</text><text class="cls-1" transform="matrix(1, -0.1, 0.1, 1, 889.33, 663.36)">t</text><text class="cls-1" transform="translate(893.42 662.97) rotate(-5.82)"> </text><text class="cls-1" transform="translate(896.34 662.67) rotate(-6.09)">j</text><text class="cls-1" transform="matrix(0.99, -0.11, 0.11, 0.99, 899.33, 662.35)">u</text><text class="cls-1" transform="translate(905.36 661.66) rotate(-7.02)">s</text><text class="cls-1" transform="translate(911.01 660.96) rotate(-7.43)">t</text><text class="cls-1" transform="translate(915.07 660.43) rotate(-7.72)"> </text><text class="cls-1" transform="matrix(0.99, -0.14, 0.14, 0.99, 918.01, 660.03)">b</text><text class="cls-1" transform="translate(924.32 659.13) rotate(-8.57)">e</text><text class="cls-1" transform="translate(930.24 658.23) rotate(-8.9)"> </text><text class="cls-1" transform="translate(933.16 657.78) rotate(-9.22)">e</text><text class="cls-1" transform="translate(939.04 656.82) rotate(-9.64)">a</text><text class="cls-1" transform="translate(944.99 655.81) rotate(-10.03)">s</text><text class="cls-1" transform="translate(950.42 654.85) rotate(-10.39)">y</text><text class="cls-1" transform="translate(956.41 653.75) rotate(-10.76)">?</text><text class="cls-1" transform="translate(962.21 652.64) rotate(-11.03)">/</text><text class="cls-1" transform="translate(965.81 651.95) rotate(-11.43)">W</text><text class="cls-1" transform="translate(975.49 649.98) rotate(-11.85)">h</text><text class="cls-1" transform="translate(981.28 648.76) rotate(-12.16)">y</text><text class="cls-1" transform="matrix(0.98, -0.21, 0.21, 0.98, 987.16, 647.49)"> </text><text class="cls-1" transform="translate(990.03 646.86) rotate(-12.6)">d</text><text class="cls-1" transform="translate(996.15 645.48) rotate(-12.64)">o</text><text class="cls-1" transform="matrix(0.97, -0.24, 0.24, 0.97, 1002.32, 644.1)">e</text><text class="cls-1" transform="matrix(0.97, -0.25, 0.25, 0.97, 1008.11, 642.68)">s</text><text class="cls-1" transform="matrix(0.97, -0.26, 0.26, 0.97, 1013.64, 641.25)"> </text><text class="cls-1" transform="translate(1016.51 640.49) rotate(-15.58)">e</text><text class="cls-1" transform="translate(1022.1 638.93) rotate(-16.38)">v</text><text class="cls-1" transform="translate(1027.68 637.29) rotate(-17.17)">e</text><text class="cls-1" transform="translate(1033.36 635.52) rotate(-17.88)">r</text><text class="cls-1" transform="translate(1037.84 634.08) rotate(-18.61)">y</text><text class="cls-1" transform="translate(1043.51 632.17) rotate(-19.44)">b</text><text class="cls-1" transform="translate(1049.53 630.03) rotate(-20.29)">o</text><text class="cls-1" transform="matrix(0.93, -0.36, 0.36, 0.93, 1055.33, 627.89)">d</text><text class="cls-1" transform="translate(1061.14 625.64) rotate(-21.93)">y</text><text class="cls-1" transform="translate(1066.69 623.39) rotate(-22.52)"> </text><text class="cls-1" transform="translate(1069.41 622.27) rotate(-23.11)">n</text><text class="cls-1" transform="translate(1074.99 619.88) rotate(-23.9)">e</text><text class="cls-1" transform="translate(1080.43 617.47) rotate(-24.67)">e</text><text class="cls-1" transform="translate(1085.84 614.98) rotate(-25.45)">d</text><text class="cls-1" transform="matrix(0.9, -0.44, 0.44, 0.9, 1091.46, 612.3)"> </text><text class="cls-1" transform="translate(1094.13 611.01) rotate(-26.8)">m</text><text class="cls-1" transform="translate(1102.04 607) rotate(-27.73)">e</text><text class="cls-1" transform="translate(1107.29 604.22) rotate(-28.29)"> </text><text class="cls-1" transform="matrix(0.88, -0.48, 0.48, 0.88, 1109.89, 602.82)">t</text><text class="cls-1" transform="translate(1113.46 600.87) rotate(-29.36)">o</text><text class="cls-1" transform="translate(1118.86 597.82) rotate(-29.92)"> </text><text class="cls-1" transform="translate(1121.43 596.35) rotate(-30.45)">s</text><text class="cls-1" transform="translate(1126.31 593.47) rotate(-31.04)">t</text><text class="cls-1" transform="matrix(0.85, -0.52, 0.52, 0.85, 1129.82, 591.36)">a</text><text class="cls-1" transform="translate(1134.79 588.29) rotate(-32.34)">y</text><text class="cls-1" transform="translate(1139.94 585.02) rotate(-33.05)">?</text><text class="cls-1" transform="matrix(0.83, -0.55, 0.55, 0.83, 1144.89, 581.79)">/</text><text class="cls-1" transform="matrix(0.83, -0.56, 0.56, 0.83, 1147.65, 579.97)">O</text><text class="cls-1" transform="matrix(0.82, -0.57, 0.57, 0.82, 1153.67, 575.87)">h</text><text class="cls-1" transform="translate(1158.63 572.39) rotate(-35.52)">,</text><text class="cls-1" transform="matrix(0.81, -0.59, 0.59, 0.81, 1161.48, 570.35)"> </text><text class="cls-1" transform="translate(1163.86 568.63) rotate(-36.23)">I</text><text class="cls-1" transform="translate(1166.53 566.67) rotate(-36.58)"> </text><text class="cls-1" transform="translate(1168.9 564.92) rotate(-37.08)">h</text><text class="cls-1" transform="translate(1173.73 561.25) rotate(-37.74)">a</text><text class="cls-1" transform="translate(1178.48 557.57) rotate(-38.29)">t</text><text class="cls-1" transform="translate(1181.69 555.04) rotate(-38.83)">e</text><text class="cls-1" transform="translate(1186.33 551.3) rotate(-39.31)"> </text><text class="cls-1" transform="translate(1188.61 549.43) rotate(-39.68)">t</text><text class="cls-1" transform="matrix(0.76, -0.65, 0.65, 0.76, 1191.76, 546.81)">h</text><text class="cls-1" transform="translate(1196.39 542.9) rotate(-40.84)">e</text><text class="cls-1" transform="matrix(0.75, -0.66, 0.66, 0.75, 1200.89, 539)"> </text><text class="cls-1" transform="translate(1203.12 537.04) rotate(-41.66)">f</text><text class="cls-1" transform="matrix(0.74, -0.67, 0.67, 0.74, 1206.06, 534.43)">e</text><text class="cls-1" transform="translate(1210.49 530.41) rotate(-42.76)">e</text><text class="cls-1" transform="translate(1214.84 526.37) rotate(-43.2)">l</text><text class="cls-1" transform="translate(1216.98 524.37) rotate(-43.5)">i</text><text class="cls-1" transform="translate(1219.15 522.31) rotate(-43.94)">n</text><text class="cls-1" transform="translate(1223.52 518.09) rotate(-44.54)">g</text><text class="cls-1" transform="translate(1228.13 513.55) rotate(-45.03)">/</text><text class="cls-1" transform="matrix(0.7, -0.72, 0.72, 0.7, 1230.73, 510.96)">W</text><text class="cls-1" transform="translate(1237.6 503.9) rotate(-46.46)">h</text><text class="cls-1" transform="translate(1241.77 499.5) rotate(-47.02)">e</text><text class="cls-1" transform="matrix(0.67, -0.74, 0.74, 0.67, 1245.82, 495.15)">n</text><text class="cls-1" transform="translate(1249.91 490.66) rotate(-48)"> </text><text class="cls-1" transform="translate(1251.91 488.45) rotate(-48.41)">y</text><text class="cls-1" transform="matrix(0.66, -0.75, 0.75, 0.66, 1255.73, 484.14)">o</text><text class="cls-1" transform="translate(1259.81 479.46) rotate(-49.51)">u</text><text class="cls-1" transform="matrix(0.64, -0.77, 0.77, 0.64, 1263.73, 474.85)">&apos;</text><text class="cls-1" transform="translate(1265.78 472.42) rotate(-50.27)">r</text><text class="cls-1" transform="translate(1268.63 468.99) rotate(-50.74)">e</text><text class="cls-1" transform="matrix(0.63, -0.78, 0.78, 0.63, 1272.38, 464.38)"> </text><text class="cls-1" transform="translate(1274.24 462.08) rotate(-51.54)">h</text><text class="cls-1" transform="translate(1278.02 457.32) rotate(-51.94)">i</text><text class="cls-1" transform="translate(1279.81 455.03) rotate(-52.34)">g</text><text class="cls-1" transform="translate(1283.49 450.26) rotate(-52.88)">h</text><text class="cls-1" transform="matrix(0.6, -0.8, 0.8, 0.6, 1287.15, 445.41)"> </text><text class="cls-1" transform="translate(1288.92 443.04) rotate(-53.69)">b</text><text class="cls-1" transform="matrix(0.58, -0.81, 0.81, 0.58, 1292.7, 437.9)">u</text><text class="cls-1" transform="translate(1296.24 432.96) rotate(-54.71)">t</text><text class="cls-1" transform="translate(1298.6 429.63) rotate(-55.02)"> </text><text class="cls-1" transform="translate(1300.29 427.21) rotate(-55.43)">y</text><text class="cls-1" transform="translate(1303.57 422.46) rotate(-55.97)">o</text><text class="cls-1" transform="matrix(0.55, -0.83, 0.83, 0.55, 1307.03, 417.32)">u</text><text class="cls-1" transform="matrix(0.55, -0.84, 0.84, 0.55, 1310.38, 412.25)">&apos;</text><text class="cls-1" transform="translate(1312.1 409.6) rotate(-57.34)">r</text><text class="cls-1" transform="matrix(0.53, -0.85, 0.85, 0.53, 1314.5, 405.85)">e</text><text class="cls-1" transform="matrix(0.53, -0.85, 0.85, 0.53, 1317.67, 400.8)"> </text><text class="cls-1" transform="translate(1319.22 398.3) rotate(-58.76)">u</text><text class="cls-1" transform="translate(1322.36 393.12) rotate(-59.42)">n</text><text class="cls-1" transform="translate(1325.44 387.9) rotate(-60.14)">d</text><text class="cls-1" transform="matrix(0.49, -0.87, 0.87, 0.49, 1328.55, 382.48)">e</text><text class="cls-1" transform="translate(1331.42 377.29) rotate(-61.77)">r</text><text class="cls-1" transform="matrix(0.45, -0.89, 0.89, 0.45, 1333.58, 373.29)">n</text><text class="cls-1" transform="translate(1336.35 367.99) rotate(-59.46)">e</text><text class="cls-1" transform="matrix(0.52, -0.85, 0.85, 0.52, 1339.37, 362.89)">a</text><text class="cls-1" transform="matrix(0.53, -0.85, 0.85, 0.53, 1342.52, 357.74)">t</text><text class="cls-1" transform="translate(1344.68 354.28) rotate(-57.45)">h</text><text class="cls-1" transform="translate(1347.95 349.17) rotate(-56.98)"> </text><text class="cls-1" transform="translate(1349.55 346.7) rotate(-56.63)">t</text><text class="cls-1" transform="translate(1351.8 343.28) rotate(-56.12)">h</text><text class="cls-1" transform="matrix(0.57, -0.82, 0.82, 0.57, 1355.19, 338.24)">e</text><text class="cls-1" transform="matrix(0.57, -0.82, 0.82, 0.57, 1358.56, 333.35)"> </text><text class="cls-1" transform="matrix(0.58, -0.82, 0.82, 0.58, 1360.24, 330.94)">c</text><text class="cls-1" transform="translate(1363.7 326.06) rotate(-54.08)">e</text><text class="cls-1" transform="matrix(0.59, -0.81, 0.81, 0.59, 1367.19, 321.26)">i</text><text class="cls-1" transform="translate(1368.97 318.84) rotate(-53.34)">l</text><text class="cls-1" transform="matrix(0.6, -0.8, 0.8, 0.6, 1370.71, 316.51)">i</text><text class="cls-1" transform="translate(1372.49 314.13) rotate(-52.58)">n</text><text class="cls-1" transform="matrix(0.62, -0.79, 0.79, 0.62, 1376.18, 309.32)">g</text><text class="cls-1" transform="matrix(0.62, -0.78, 0.78, 0.62, 1380.19, 304.21)">/</text><text class="cls-1" transform="translate(1382.25 301.61) rotate(-50.83)">G</text><text class="cls-1" transform="translate(1386.7 296.17) rotate(-50.08)">o</text><text class="cls-1" transform="matrix(0.65, -0.76, 0.76, 0.65, 1390.68, 291.42)">t</text><text class="cls-1" transform="translate(1393.34 288.32) rotate(-49.06)"> </text><text class="cls-1" transform="matrix(0.66, -0.75, 0.75, 0.66, 1395.28, 286.08)">t</text><text class="cls-1" transform="translate(1397.98 283.02) rotate(-47.98)">h</text><text class="cls-1" transform="translate(1402.03 278.52) rotate(-47.2)">e</text><text class="cls-1" transform="translate(1406.09 274.15) rotate(-46.59)"> </text><text class="cls-1" transform="translate(1408.1 272.02) rotate(-45.97)">c</text><text class="cls-1" transform="translate(1412.25 267.74) rotate(-45.1)">a</text><text class="cls-1" transform="matrix(0.72, -0.7, 0.7, 0.72, 1416.49, 263.49)">r</text><text class="cls-1" transform="translate(1419.65 260.41) rotate(-43.46)">d</text><text class="cls-1" transform="matrix(0.74, -0.68, 0.68, 0.74, 1424.17, 256.13)">s</text><text class="cls-1" transform="translate(1428.4 252.28) rotate(-41.71)"> </text><text class="cls-1" transform="matrix(0.75, -0.66, 0.66, 0.75, 1430.59, 250.33)">i</text><text class="cls-1" transform="matrix(0.76, -0.65, 0.65, 0.76, 1432.83, 248.36)">n</text><text class="cls-1" transform="translate(1437.45 244.46) rotate(-39.47)"> </text><text class="cls-1" transform="translate(1439.68 242.59) rotate(-38.27)">m</text><text class="cls-1" transform="matrix(0.8, -0.6, 0.6, 0.8, 1446.49, 237.25)">y</text><text class="cls-1" transform="translate(1451.29 233.69) rotate(-35.68)"> </text><text class="cls-1" transform="matrix(0.82, -0.57, 0.57, 0.82, 1453.67, 231.97)">h</text><text class="cls-1" transform="translate(1458.63 228.56) rotate(-33.07)">a</text><text class="cls-1" transform="translate(1463.65 225.3) rotate(-31.43)">n</text><text class="cls-1" transform="translate(1468.78 222.16) rotate(-29.66)">d</text><text class="cls-1" transform="translate(1474.2 219.11) rotate(-28.25)"> </text><text class="cls-1" transform="matrix(0.89, -0.46, 0.46, 0.89, 1476.77, 217.73)">I</text><text class="cls-1" transform="matrix(0.9, -0.44, 0.44, 0.9, 1479.7, 216.23)"> </text><text class="cls-1" transform="translate(1482.3 214.94) rotate(-24.68)">h</text><text class="cls-1" transform="matrix(0.92, -0.38, 0.38, 0.92, 1487.77, 212.43)">a</text><text class="cls-1" transform="translate(1493.27 210.18) rotate(-20.54)">t</text><text class="cls-1" transform="matrix(0.95, -0.32, 0.32, 0.95, 1497.05, 208.76)">e</text><text class="cls-1" transform="matrix(0.96, -0.29, 0.29, 0.96, 1502.66, 206.92)"> </text><text class="cls-1" transform="matrix(0.97, -0.25, 0.25, 0.97, 1505.44, 206.06)">d</text><text class="cls-1" transform="translate(1511.4 204.53) rotate(-11.7)">e</text><text class="cls-1" transform="translate(1517.15 203.35) rotate(-8.76)">a</text><text class="cls-1" transform="translate(1523.04 202.49) rotate(-6.48)">l</text><text class="cls-1" transform="translate(1525.91 202.17) rotate(-4.93)">i</text><text class="cls-1" transform="translate(1528.81 201.9) rotate(-2.5)">n</text><text class="cls-1" transform="translate(1534.77 201.65) rotate(0.81)">g</text><text class="cls-1" transform="translate(1541.18 201.8) rotate(3.69)">/</text><text class="cls-1" transform="matrix(0.99, 0.12, -0.12, 0.99, 1544.75, 202)">Y</text><text class="cls-1" transform="translate(1550.47 202.68) rotate(9.84)">e</text><text class="cls-1" transform="translate(1556.25 203.7) rotate(13.22)">a</text><text class="cls-1" transform="matrix(0.96, 0.29, -0.29, 0.96, 1562, 205.06)">h</text><text class="cls-1" transform="translate(1567.73 206.81) rotate(19.13)">/</text><text class="cls-1" transform="translate(1570.81 207.85) rotate(21.88)">G</text><text class="cls-1" transform="translate(1577.23 210.46) rotate(25.19)">e</text><text class="cls-1" transform="translate(1582.55 212.99) rotate(27.65)">t</text><text class="cls-1" transform="translate(1586.13 214.89) rotate(29.31)"> </text></svg>